<?xml version="1.0" encoding="UTF-8"?>
<svg width="26px" height="27px" viewBox="0 0 26 27" version="1.1" xmlns="http://www.w3.org/2000/svg" xmlns:xlink="http://www.w3.org/1999/xlink">
    <!-- Generator: Sketch 41.2 (35397) - http://www.bohemiancoding.com/sketch -->
    <title>Fill-10</title>
    <desc>Created with Sketch.</desc>
    <defs></defs>
    <g id="Page-1" stroke="none" stroke-width="1" fill="none" fill-rule="evenodd">
        <path d="M5.92016101,6.29495058 C5.96763573,6.1050517 6.01321146,5.90439188 6.13537975,5.80058049 C6.26894196,5.68664116 6.48226171,5.63410247 6.6715276,5.66828427 C6.90636922,5.71069502 7.07158124,5.84235824 7.17412664,6.00820327 C7.25958114,6.14556346 7.28616698,6.33356336 7.25768215,6.5981558 C7.23869226,6.77729375 7.17096166,6.94250578 7.04752739,7.04821616 C6.90636922,7.16848545 6.71457134,7.20330025 6.57467916,7.20393324 C6.39111024,7.20456624 6.18855143,7.08619593 6.04802626,6.89439806 C5.92838996,6.73045203 5.86192535,6.52789322 5.92016101,6.29495058 M4.61302369,5.96769151 C4.56364998,6.16518635 4.52503721,6.3430583 4.51617526,6.52346224 C4.50604732,6.72538806 4.47313151,6.91465394 4.51301028,7.0925259 C4.55542103,7.28432377 4.62188564,7.4666267 4.72063306,7.62804075 C4.81874748,7.78818881 4.9694006,7.9084581 5.12068671,8.03505736 C5.25994589,8.15216167 5.40047106,8.28509089 5.58403999,8.37117838 C5.74672003,8.44840393 5.92838996,8.51676753 6.12525181,8.56804023 C6.26830896,8.60538701 6.42212706,8.61931293 6.57467916,8.61931293 C6.77090801,8.61931293 6.98232877,8.60222203 7.1817226,8.53765641 C7.37098848,8.47688876 7.55265842,8.3686464 7.72483341,8.25470707 C7.89194442,8.14456572 8.0312036,7.9932796 8.16476582,7.83756252 C8.29516305,7.68627641 8.44644916,7.53688929 8.52937168,7.34635741 C8.60786322,7.16721946 8.62115614,6.9564317 8.643944,6.74564394 C8.66419989,6.55068108 8.70028067,6.36394718 8.68129078,6.1898732 C8.65976891,5.99680934 8.60406524,5.81450641 8.54139861,5.64866138 C8.474301,5.46952344 8.34010579,5.33469523 8.23376241,5.18910608 C8.12298807,5.03655398 8.05082649,4.84792109 7.90840233,4.73398176 C7.76218019,4.61751044 7.57797827,4.54914684 7.41023425,4.47571928 C7.23932526,4.40039272 7.04942637,4.40545669 6.86838944,4.37760485 C6.76014707,4.36051395 6.65760168,4.30924125 6.54809332,4.30924125 C6.35502945,4.30924125 6.16892855,4.32569916 5.99485457,4.37380687 C5.81191865,4.42444658 5.65430257,4.522561 5.49795249,4.62130842 C5.34160241,4.72005584 5.22006712,4.85108607 5.09473386,4.99414323 C4.97509756,5.13023743 4.8833131,5.27962455 4.79722561,5.45243254 C4.71746808,5.61258059 4.66049841,5.77905862 4.61302369,5.96769151 M5.92395899,3.85664891 C6.11069289,3.81360517 6.30312376,3.78701932 6.50694856,3.78701932 C6.67785756,3.78701932 6.84813356,3.79714726 7.01904255,3.82943007 C7.18615357,3.86044689 7.33680669,3.9440024 7.50138572,4.00540304 C7.68495464,4.07313364 7.84636869,4.16175312 8.00841574,4.26999548 C8.17046279,4.37887084 8.3546647,4.45672939 8.48949291,4.59852055 C8.62368812,4.73904573 8.69268472,4.92831162 8.79459712,5.09478964 C8.89587652,5.26126766 8.99715593,5.42014973 9.06045556,5.60498464 C9.12375518,5.78918656 9.16489994,5.97402147 9.18452283,6.16835133 C9.20414571,6.3607822 9.21870463,6.55194707 9.19148579,6.74501094 C9.16426695,6.93680881 9.1383141,7.13240466 9.07121649,7.31470759 C9.00348589,7.49701052 8.87625364,7.65019562 8.77370824,7.81414166 C8.66989685,7.97998668 8.58380936,8.15849163 8.44898115,8.29521883 C8.31098796,8.43511101 8.13817998,8.52752846 7.97296795,8.62564289 C7.81788386,8.71806035 7.6748267,8.80288185 7.52480658,8.86428249 C7.36275953,8.9307471 7.2146384,9.03076051 7.05005937,9.06241032 C6.88548034,9.09406014 6.71014037,9.03012751 6.5348004,9.03012751 C6.39933919,9.03012751 6.25944702,9.05671336 6.11005989,9.03709047 C5.97713068,9.01999957 5.82521157,9.05164938 5.67772344,9.01873358 C5.49035654,8.97695582 5.32451151,8.87187844 5.16436345,8.79148791 C4.99661944,8.70666641 4.8491313,8.59399307 4.7136701,8.47182479 C4.5769429,8.34839052 4.43641773,8.22115827 4.33577132,8.06480818 C4.2376569,7.91225608 4.1357445,7.74704405 4.07434386,7.5685391 C4.0161082,7.3988961 3.96610149,7.2108962 3.94268063,7.02163031 C3.92052576,6.84439136 3.90976482,6.65069449 3.92052576,6.45952962 C3.9306537,6.28165766 3.96673449,6.09239177 4.00661326,5.90565787 C4.04902401,5.70499805 4.15346839,5.5271261 4.22499697,5.35115313 C4.30158952,5.16252024 4.39970395,4.99287724 4.50731331,4.83462817 C4.61998665,4.66751715 4.72379804,4.49407617 4.8668552,4.36431193 C5.01371034,4.23074971 5.19791225,4.14719421 5.37325222,4.05667574 C5.54542721,3.96679027 5.72836314,3.90222465 5.92395899,3.85664891 M4.44464668,2.97931607 C4.29209458,3.0767975 4.12371757,3.15718802 3.98635737,3.27682432 C3.85026317,3.39519462 3.72809489,3.53445381 3.60909159,3.67307999 C3.49198728,3.80917419 3.42678866,3.98578015 3.32740825,4.14023125 C3.23055982,4.29088436 3.07167775,4.41052066 2.99318621,4.57763168 C2.91659366,4.73904573 2.88114587,4.92388064 2.82291021,5.09922061 C2.76657354,5.26823062 2.77606849,5.45623051 2.73808871,5.63790045 C2.69884294,5.82083637 2.62858035,5.99237836 2.61085646,6.17088331 C2.59186657,6.35698422 2.57540867,6.53928715 2.57794065,6.71905809 C2.58110563,6.90579199 2.6209844,7.08492994 2.64630425,7.26343489 C2.6722571,7.44763681 2.72859377,7.61854581 2.77796748,7.79198679 C2.82797418,7.97112473 2.89443879,8.13507077 2.96786636,8.3002828 C3.04319292,8.46929281 3.12991341,8.62184491 3.22802783,8.77503001 C3.32677525,8.9301141 3.42362368,9.07696924 3.54579196,9.21369643 C3.66732725,9.35042363 3.76417568,9.50993869 3.90723284,9.62577701 C4.04775801,9.74034934 4.19651214,9.85049069 4.35729319,9.94290815 C4.51364328,10.0327936 4.69404722,10.0796353 4.8674882,10.1460999 C5.03523221,10.2106656 5.19981124,10.2986521 5.38211417,10.3397968 C5.580875,10.3841066 5.77140688,10.4201873 5.95434281,10.4429752 C6.15373664,10.4676621 6.3474335,10.474625 6.5348004,10.474625 C6.72849726,10.474625 6.91776315,10.4518372 7.10323106,10.4265173 C7.29186395,10.3999315 7.47479987,10.3524567 7.6577358,10.2986521 C7.83687375,10.2461134 8.02360765,10.2024366 8.20084661,10.1226791 C8.36859062,10.0473525 8.50468482,9.90176339 8.67369483,9.80111698 C8.83384289,9.70490155 9.01741181,9.6453999 9.16173496,9.5257636 C9.30479212,9.4061273 9.45734422,9.29028898 9.58267749,9.1503968 C9.70737776,9.01177062 9.75611847,8.81427578 9.86119585,8.65855869 C9.96564024,8.50347461 10.0586907,8.34839052 10.1416132,8.1806465 C10.2245357,8.01290249 10.3099902,7.85085544 10.3701249,7.67361648 C10.4302595,7.49637752 10.4701383,7.31787257 10.5055861,7.13493665 C10.5410339,6.95073473 10.6429463,6.77412877 10.6524412,6.58739487 C10.6619361,6.40066096 10.5714177,6.21582605 10.5524278,6.02972514 C10.5334379,5.84362424 10.6018015,5.64106543 10.5562258,5.46066149 C10.51065,5.28025755 10.3656939,5.12897144 10.2954313,4.95679645 C10.2251687,4.78462146 10.1302193,4.62890437 10.0371688,4.46749032 C9.94411836,4.30607627 9.85170091,4.15035919 9.73839457,4.00287105 C9.62445524,3.85474992 9.53646876,3.68700591 9.40417254,3.55597568 C9.27187631,3.42431245 9.15413901,3.26922836 9.00538488,3.15718802 C8.85663075,3.04514768 8.6964827,2.93627232 8.53316966,2.84638685 C8.37048961,2.75650138 8.17299477,2.73181452 7.9982878,2.66661591 C7.83750674,2.60711426 7.69065161,2.4982389 7.52733857,2.45772713 C7.36149354,2.41721537 7.18552057,2.40835342 7.01840956,2.38746455 C6.84939955,2.36657567 6.67659157,2.35581473 6.50694856,2.35581473 C6.32211365,2.35581473 6.13917772,2.38746455 5.96257176,2.41088541 C5.78026883,2.43493927 5.60682785,2.49444092 5.43465286,2.54254864 C5.2580469,2.59192235 5.07004701,2.60964624 4.90546797,2.68307381 C4.73898995,2.75713437 4.59719878,2.88183464 4.44464668,2.97931607 M25.9525943,6.06770492 C25.9146145,5.89046596 25.9032206,5.70309906 25.8152341,5.55244595 C25.7278806,5.40115984 25.6177393,5.24670874 25.4822781,5.12580645 C25.3525138,5.01060113 25.1835038,4.93970555 25.0309517,4.86374599 C24.8765006,4.78715344 24.7036926,4.75740262 24.5397466,4.71372588 C24.3701036,4.66815014 24.2029926,4.63143636 24.0377805,4.61244647 C23.8567436,4.59219059 23.6833026,4.54914684 23.5263195,4.54914684 C23.3813634,4.54914684 23.2326093,4.57953067 23.0832222,4.59155759 C22.935734,4.60421752 22.7939429,4.66182018 22.6502527,4.68587404 C22.5122595,4.7092949 22.2856468,4.73524775 22.0311823,4.74664168 C21.8368525,4.75487063 21.6222667,4.76626457 21.413378,4.77069554 C21.1937283,4.77512652 20.9766105,4.68460805 20.7949406,4.68840603 C20.549971,4.692837 20.4341327,4.82260124 20.3360183,4.90045978 C20.2024561,5.00680315 20.1834662,5.13403541 20.1549814,5.33026425 C20.1277625,5.52016314 20.1062406,5.71575899 20.212584,5.85818315 C20.3195604,6.00060731 20.5100923,6.06137496 20.6993582,6.0885938 C20.8443143,6.10948267 21.0335802,6.16518635 21.2677888,6.16518635 C21.4348998,6.16518635 21.6165698,6.10631769 21.8026707,6.09618975 C21.9824416,6.08669481 22.1698085,6.13733451 22.3432495,6.12087661 C22.5382124,6.10188672 22.7249463,6.08669481 22.8787644,6.06074196 C23.0927171,6.02529417 23.3123668,5.99680934 23.5275855,5.99680934 C23.7130535,5.99680934 23.8542116,6.01516623 23.9776459,6.04301806 C24.1624808,6.08416282 24.2694572,6.15505841 24.3732686,6.23418294 C24.5156927,6.34179231 24.5878543,6.69753622 24.3549117,6.87477518 C24.2605952,6.94630376 24.0390465,6.97858657 23.8016729,6.99947544 C23.621269,7.01530035 23.4218752,6.99504447 23.2427372,6.99631046 C22.9756128,6.99757646 22.7527981,7.0577111 22.6869665,7.06024309 C22.5242864,7.06720605 22.3324886,7.00453941 22.1343607,7.00897039 C21.9539568,7.01276837 21.7665899,7.01783234 21.583654,7.01973133 C21.3893241,7.02163031 21.2006912,6.99884245 21.0335802,6.99884245 C20.7835467,6.99947544 20.5828868,7.02606129 20.4841394,7.02226331 C20.224611,7.01340136 20.1530824,7.0235293 19.6865641,7.0235293 C19.5099582,7.0235293 19.4352646,6.87857315 19.358672,6.76526682 C19.2675206,6.62790663 19.1687732,6.48041849 19.1789011,6.37217613 C19.1864971,6.28418965 19.188396,6.20443212 19.187763,6.12530758 C19.1864971,5.94680263 19.188396,5.77209566 19.2118169,5.61068161 C19.2377698,5.43470864 19.3827259,5.22581987 19.367534,4.9985742 C19.3548741,4.80740933 19.2662546,4.60168553 19.1592782,4.40102571 C19.0731907,4.24024466 18.8921538,4.13516728 18.7104838,3.98198218 C18.5414738,3.84019101 18.3610699,3.73384763 18.1426862,3.65915407 C17.9318984,3.5863595 17.7230097,3.47242017 17.494498,3.47242017 C17.4223364,3.47242017 17.3539728,3.53192182 17.2830772,3.53951778 C17.1311581,3.55660868 16.9475892,3.55850767 16.7595893,3.63446722 C16.6083032,3.69586786 16.4532191,3.78575333 16.299401,3.90665562 C16.1702698,4.00793502 16.0348086,4.12693832 15.9158053,4.28202241 C15.784142,4.4541974 15.7164114,4.65169224 15.6708357,4.86248 C15.629691,5.05491087 15.6683037,5.26379964 15.6689367,5.49104531 C15.6689367,5.68854015 15.6746337,5.89679592 15.6853946,6.1215096 C15.6948896,6.30634452 15.6999535,6.51776528 15.7050175,6.73804798 C15.7094485,6.90389301 15.624627,7.06340807 15.5347415,7.15645852 C15.4682769,7.22482212 15.3353477,7.23621605 15.1460818,7.22988609 C14.9871997,7.22545512 14.8365466,7.24254602 14.7852739,7.16975144 C14.7580551,7.13113867 14.771981,7.03239125 14.7523581,6.8190715 C14.7340012,6.62600764 14.777045,6.3436913 14.8314826,6.04428406 C14.8694624,5.83476229 14.934028,5.61447958 14.9549169,5.38723392 C14.9758058,5.16568522 14.9125062,4.9473015 14.8745264,4.72891779 C14.8371796,4.50990107 14.8365466,4.31177324 14.764385,4.15352417 C14.6738666,3.95349734 14.5725872,3.77752438 14.4421899,3.6553561 C14.2915368,3.51293193 14.0807491,3.48697909 13.9035101,3.41988148 C13.7142442,3.3483529 13.5294093,3.31037312 13.3433084,3.28631926 C13.1806283,3.26543039 13.0420022,3.23884454 12.9078069,3.23884454 C12.7027162,3.23884454 12.5235782,3.27049436 12.3507702,3.32050106 C12.1589723,3.37557174 11.9519826,3.39013065 11.8025954,3.50343699 C11.6525753,3.61674332 11.5880097,3.81550415 11.4841983,3.98451416 C11.3898819,4.13896525 11.2202389,4.27695844 11.1677002,4.47445328 C11.1214914,4.64852726 11.194919,4.85868202 11.194286,5.08023072 C11.193653,5.26000167 11.2202389,5.45559752 11.2303668,5.67334824 C11.2392288,5.84615622 11.2379628,6.03478911 11.2423937,6.23038496 C11.2461917,6.4107889 11.200616,6.5987888 11.191754,6.78678869 C11.1828921,6.97162361 11.1259224,7.15076156 11.0961716,7.33243149 C11.0670538,7.51220243 11.023377,7.67931345 10.9702053,7.84958945 C10.9170336,8.02049844 10.9075387,8.20659935 10.8284142,8.36927939 C10.7511886,8.52816146 10.6100305,8.65096274 10.5074851,8.80288185 C10.4100036,8.94847099 10.3220171,9.10102309 10.2004819,9.24091527 C10.0865425,9.3725785 9.96374125,9.49917775 9.82891304,9.627043 C9.70231378,9.7460463 9.5807785,9.87770953 9.43582235,9.99481384 C9.31238808,10.0941943 9.16933092,10.2075006 8.99019297,10.2929551 C8.83953985,10.3657497 8.65533794,10.3879045 8.474934,10.4474062 C8.31162096,10.5018439 8.1514729,10.5917293 7.97106896,10.6341401 C7.80015996,10.6746519 7.61722404,10.6733859 7.43745309,10.7012377 C7.26211312,10.7284565 7.08614016,10.7607393 6.90700221,10.7752983 C6.72786426,10.7898572 6.54935931,10.8506248 6.37148736,10.8506248 C6.19234941,10.8506248 6.02207341,10.7626383 5.8536964,10.7487124 C5.67392546,10.7335205 5.49921848,10.7461804 5.33463945,10.7151636 C5.1555015,10.6816148 4.9694006,10.6949077 4.81241752,10.643635 C4.63707755,10.5866654 4.48832342,10.477157 4.34463327,10.3999315 C4.18068723,10.311945 4.04269404,10.2030696 3.92622273,10.0897633 C3.79582549,9.96443002 3.62301751,9.92012028 3.44198057,9.92012028 C3.25524667,9.92012028 3.10459356,10.0043088 2.97356333,10.139137 C2.84063411,10.2764972 2.79505837,10.4239853 2.79759036,10.6024903 C2.80075534,10.7803622 2.858991,10.9189884 2.99698419,11.0519176 C3.12041846,11.1709209 3.24258675,11.2854933 3.39134087,11.3861397 C3.53249904,11.4823551 3.6578323,11.6108533 3.81924636,11.6899779 C3.97243146,11.7653044 4.13321251,11.838732 4.30348851,11.8982337 C4.46426957,11.9545703 4.64277452,11.9691292 4.81811449,12.010274 C4.98395951,12.0501528 5.14917154,12.1191494 5.3270435,12.1451022 C5.4966865,12.1697891 5.67202647,12.1919439 5.85116442,12.2039709 C6.02270641,12.2159978 6.19931237,12.2166308 6.37781732,12.2166308 C6.57657815,12.2166308 6.772807,12.1647251 6.96966884,12.1507992 C7.16906267,12.1368733 7.3678235,12.1444692 7.56215336,12.1166174 C7.76091419,12.0881325 7.95840903,12.0634457 8.14894091,12.0223009 C8.34643575,11.9792572 8.5426646,11.9387454 8.72813251,11.8830417 C8.92309536,11.8235401 9.12312219,11.7849273 9.30036115,11.7127657 C9.49152602,11.6349072 9.67825993,11.5513517 9.84410495,11.4589342 C10.0270409,11.3576548 10.1302193,11.155729 10.2758084,11.0392577 C10.4175996,10.9246854 10.6309193,10.9012645 10.7587846,10.7841602 C10.8929798,10.6619919 11.0075521,10.5208337 11.1265554,10.3948675 C11.2512557,10.2632043 11.3126563,10.0809013 11.4208987,9.94544013 C11.532939,9.80428196 11.6734642,9.68781065 11.7684136,9.54158851 C11.8665281,9.39093539 11.9861644,9.25230921 12.0659219,9.09595912 C12.1469454,8.93707706 12.220373,8.77059904 12.2836726,8.60538701 C12.3469722,8.44017498 12.383053,8.26230302 12.4292618,8.08949504 C12.4742045,7.91985204 12.4748375,7.7381821 12.5033223,7.56094314 C12.5394031,7.34129344 12.6102987,7.12797369 12.6223256,6.91528694 C12.6343526,6.69120626 12.5919418,6.47029055 12.5887768,6.26140178 C12.5843458,6.02972514 12.6027027,5.80944244 12.5932078,5.60751662 C12.5767499,5.25620369 12.5837129,5.032756 12.6096657,4.92388064 C12.6716993,4.692837 12.7558878,4.51180006 13.0552951,4.521928 C13.3236855,4.53142295 13.40281,4.67258112 13.4388908,4.72385382 C13.4832006,4.78588745 13.5218133,4.83905914 13.5477662,4.98781327 C13.581948,5.18720709 13.5496652,5.50180625 13.4945945,5.80311247 C13.4616787,5.98478241 13.4585137,6.18037826 13.4363588,6.3772401 C13.414837,6.57030397 13.3907831,6.75577188 13.40914,6.94567076 C13.4262309,7.13177167 13.4255979,7.32420254 13.4762376,7.50967045 C13.5262443,7.69323937 13.585746,7.8742763 13.6977863,8.03125938 C13.8022307,8.17811452 13.912372,8.35598647 14.094042,8.45789887 C14.2421631,8.54082139 14.4396579,8.59146109 14.6529777,8.63197285 C14.8194557,8.66425566 15.0150516,8.65096274 15.2290043,8.65096274 C15.4132062,8.65096274 15.5739873,8.65096274 15.7113475,8.62247791 C15.8860544,8.58576412 16.0322766,8.51993251 16.1607748,8.44080797 C16.2930711,8.35915145 16.3823235,8.22432325 16.5019598,8.10152197 C16.6209631,7.97808769 16.7792122,7.87617529 16.8602357,7.7223572 C16.9393603,7.57170408 16.9304983,7.3818052 16.9691111,7.2115292 C17.0064579,7.04568417 17.1159662,6.87920615 17.1115352,6.70386618 C17.1058383,6.46142861 17.0938113,6.23228395 17.0849494,6.04934803 C17.0767204,5.88097102 16.9507542,5.7303179 16.9488552,5.59612269 C16.9463232,5.38470193 16.9665791,5.21252695 16.986202,5.12833844 C17.0222828,4.97262136 17.1843298,4.84285712 17.4318314,4.84222412 C17.6343902,4.84159113 17.8059322,4.92071566 17.8477099,5.033389 C17.8597368,5.06567181 17.8863227,5.15365829 17.8578379,5.44800156 C17.8217571,5.81830439 17.836316,5.8493212 17.8027672,6.24937485 C17.7894743,6.40066096 17.8204911,6.60258678 17.831885,6.82413547 C17.84138,7.00453941 17.8192251,7.20646523 17.8863227,7.39699711 C17.9470903,7.5685391 18.0622957,7.72678817 18.1990229,7.87997327 C18.3161272,8.0103705 18.4902011,8.15659264 18.7484636,8.25787205 C18.9276016,8.32750164 19.1447193,8.3521885 19.4086787,8.35788546 C19.5979446,8.36231644 19.7625237,8.37244438 19.9087458,8.37624235 C20.1037087,8.38193932 20.2644897,8.42245108 20.4075469,8.42688206 C20.8246914,8.44144097 20.9633176,8.41105715 21.243102,8.41105715 C21.3899571,8.41105715 21.5501052,8.38383831 21.741903,8.37877434 C21.8887582,8.37497636 22.0558692,8.44397296 22.2445021,8.43701 C22.3945222,8.43131303 22.5616332,8.45853187 22.7464681,8.45093591 C22.9148451,8.44333996 23.0749932,8.36738041 23.2313433,8.36294943 C23.4085822,8.35788546 23.5902522,8.38447131 23.7700231,8.37434336 C23.9504271,8.36484842 24.135262,8.37371037 24.3099689,8.34965651 C24.4922719,8.32433666 24.6802718,8.30154879 24.8467498,8.25027609 C25.0227228,8.19647141 25.1892008,8.09835699 25.3366889,8.00340754 C25.485443,7.90719211 25.5721635,7.7388151 25.6791399,7.58752899 C25.7747223,7.45206778 25.8734698,7.30901063 25.9272744,7.11974474 C25.9715842,6.96339466 26.006399,6.78868768 26.0171599,6.59055985 C26.0266549,6.40509194 25.9880421,6.23354995 25.9525943,6.06770492 M9.80675817,14.0656129 C9.75168749,13.9117948 9.64977509,13.7700037 9.55545865,13.6206165 C9.46747216,13.4800914 9.36935774,13.3433642 9.24592347,13.2192969 C9.12881915,13.1015596 9.01614582,12.9648324 8.86739169,12.8717819 C8.72813251,12.7850614 8.56102149,12.7306238 8.39327748,12.6742871 C8.25718328,12.6280784 8.09576923,12.6356743 7.90966832,12.6160514 C7.76471217,12.6008595 7.6070961,12.6046575 7.42352718,12.6046575 C7.32541275,12.6046575 7.12918391,12.6166844 6.90573622,12.6255464 C6.73609322,12.6325093 6.54809332,12.5470548 6.3822483,12.5540178 C6.11195888,12.5660447 5.89357517,12.6717551 5.86382434,12.6717551 C5.68658538,12.6717551 5.49542051,12.6609942 5.29792567,12.6540312 C5.11498974,12.6470683 4.93078782,12.5546508 4.73962295,12.5362939 C4.55352204,12.51857 4.35855919,12.5489538 4.17309128,12.516671 C3.98572438,12.4837552 3.8110174,12.3976677 3.63441144,12.345129 C3.44894353,12.2906914 3.25144869,12.2736005 3.08813565,12.1919439 C2.91406168,12.1058564 2.79189339,11.9507723 2.6545332,11.8292371 C2.62225039,11.8001192 2.43171851,11.6026244 2.23295768,11.3658838 C2.0924325,11.1994058 1.94874235,11.0253318 1.86771882,10.8607527 C1.8215101,10.7683353 1.81201515,10.5524836 1.9405134,10.3777766 C2.05002175,10.2290225 2.13990722,10.1214131 2.21396779,10.0182347 C2.30068828,9.89733242 2.32031116,9.7473123 2.42918652,9.61754806 C2.61465444,9.38144045 2.68998099,9.19850452 2.63617631,9.00100968 C2.63427732,8.99341373 2.51464102,8.65096274 2.4848902,8.59842405 C2.40323368,8.45599989 2.26840547,8.3173737 2.20890382,8.14076774 C2.15509914,7.98188567 2.17535502,7.79072079 2.13990722,7.61094985 C2.10699142,7.44383883 2.07977258,7.26976486 2.06331468,7.09062691 C2.04685677,6.91845192 2.06268168,6.74311195 2.06204868,6.564607 C2.06141569,6.39053302 2.03926082,6.21456006 2.05381973,6.03795409 C2.06774565,5.86324712 2.0582507,5.68347618 2.08736853,5.5100352 C2.11711936,5.33596122 2.23359067,5.18214312 2.27853341,5.01376611 C2.32474214,4.84222412 2.30322027,4.65105924 2.36651989,4.49027819 C2.42728754,4.3345611 2.49944911,4.16301911 2.59376556,3.9952751 C2.67732107,3.84525498 2.76024358,3.67497898 2.8754489,3.52622485 C2.98179228,3.38823167 3.18688307,3.331262 3.32297727,3.20276376 C3.44957653,3.08312746 3.55845189,2.9407033 3.71353598,2.83625891 C3.85722613,2.73877748 3.97812842,2.57926242 4.14840442,2.49950489 C4.3047545,2.42671032 4.48262646,2.36404368 4.66366339,2.309606 C4.84723232,2.25453533 5.02826925,2.19313469 5.11245776,2.03551861 C5.19664626,1.87916853 5.16942742,1.68737066 5.11435675,1.50380174 C5.06941401,1.35568061 5.01307734,1.21958641 4.89597303,1.13286592 C4.77950171,1.04677843 4.63264658,0.9999367 4.47882848,0.9999367 C4.41046488,0.9999367 4.3395693,0.998670708 4.27437068,1.01892659 C4.09270075,1.07336427 3.91989276,1.14932382 3.74961677,1.2214854 C3.57554279,1.29491297 3.43311863,1.42341121 3.27170457,1.51456268 C3.10712554,1.60698013 2.95204145,1.70129658 2.80202133,1.81143793 C2.65073522,1.92221228 2.50704507,2.03425262 2.37031787,2.16211787 C2.23422367,2.28998312 2.08673554,2.40328945 1.96520025,2.54697961 C1.84556395,2.68940377 1.69237885,2.81030606 1.58793447,2.96792214 C1.48538907,3.12237323 1.46766518,3.32809702 1.37967869,3.49647403 C1.29485719,3.66042007 1.16889093,3.80600921 1.09799535,3.98261517 C1.03089774,4.15099218 0.978359051,4.32443316 0.924554367,4.49724115 C0.870749683,4.67004913 0.7998541,4.83905914 0.759975334,5.0156651 C0.719463572,5.19227106 0.751113386,5.38090396 0.725160539,5.5600419 C0.698574695,5.73917985 0.621982145,5.91198783 0.609955216,6.09239177 C0.597928286,6.27342871 0.570709446,6.45573164 0.573874428,6.63613558 C0.577039409,6.81780551 0.670089862,6.99251249 0.689079751,7.17228343 C0.708069639,7.35268737 0.731490501,7.52802734 0.766305297,7.7052663 C0.801753089,7.88313825 0.827705936,8.05911122 0.879611631,8.2325522 C0.931517326,8.40599318 0.997348939,8.56867322 1.06634553,8.73578424 C1.19990775,8.98708376 0.907463467,9.18837658 0.837833877,9.29471996 C0.759342338,9.41625524 0.72326155,9.61438308 0.625147126,9.78972305 C0.540325625,9.94100916 0.36751764,10.0726724 0.328271871,10.2480123 C0.288393105,10.4252513 0.366884644,10.6069212 0.378911573,10.7715003 C0.392204495,10.9474732 0.444743186,11.1012913 0.502345848,11.2608064 C0.560581506,11.4247524 0.625147126,11.5760386 0.714399602,11.7209947 C0.806184062,11.8716478 0.872015676,12.0355938 0.978359051,12.1634591 C1.09609636,12.3052503 1.18851382,12.4609674 1.30118715,12.5717417 C1.45120727,12.7204958 1.58413649,12.8445631 1.67402196,12.9312836 C1.81074916,13.0528189 1.99685007,13.1167515 2.15130116,13.2135999 C2.30575225,13.3104484 2.44121345,13.4503405 2.60895747,13.5250341 C2.77480249,13.5990947 2.95900441,13.6427714 3.13307839,13.6978421 C3.30715237,13.7529128 3.48692331,13.8003875 3.66479526,13.8390003 C3.84456621,13.877613 4.02940112,13.890273 4.20853907,13.9155928 C4.39210799,13.9415456 4.57630991,13.9377477 4.75544785,13.9523066 C4.94154876,13.9674985 5.1225857,14.0244682 5.29919166,14.0307981 C5.48972354,14.0371281 5.67392546,13.9966163 5.84736644,13.9966163 C5.92902296,13.9966163 6.44174995,14.0181382 6.6538037,14.0048453 C6.78293494,13.9972493 7.03866544,13.9573706 7.30199189,13.9491416 C7.54253048,13.9421786 7.80079296,13.9004009 7.96030802,13.9573706 C8.12362106,14.0162392 8.19894762,14.1795523 8.28630111,14.2903266 C8.40846939,14.4460437 8.49012591,14.5922658 8.49835486,14.6865823 C8.51291377,14.8568583 8.56798445,15.0189053 8.55089355,15.1600635 C8.52937168,15.3322385 8.44265119,15.4790936 8.38125055,15.6063259 C8.30718998,15.758878 8.19958062,15.8740833 8.07931132,15.9589048 C7.94891409,16.0506893 7.79003202,16.1551336 7.59950014,16.2215983 C7.43745309,16.2785679 7.25958114,16.3462985 7.07284724,16.3823793 C6.89750727,16.4165611 6.71077336,16.4488439 6.52783744,16.4634028 C6.34426852,16.4779617 6.15373664,16.4861907 5.97586468,16.4792277 C5.69418134,16.4690998 5.3770502,16.434285 5.18398634,16.4222581 C5.00611438,16.4114971 4.84090235,16.432386 4.71746808,16.5475913 C4.59593279,16.6608977 4.50478133,16.8216787 4.48579144,16.9970187 C4.46490256,17.1818536 4.54845807,17.3495976 4.66429639,17.4951868 C4.78076771,17.6401429 4.92635685,17.7597792 5.11055877,17.7800351 C5.25614791,17.796493 5.40110406,17.8110519 5.54479422,17.8192809 C5.69164935,17.8281428 5.83787149,17.8275098 5.98092865,17.8275098 C6.16956154,17.8275098 6.35439646,17.796493 6.53733238,17.7819341 C6.72469928,17.7673752 6.91396517,17.7762371 7.0956351,17.7458533 C7.27983702,17.7148365 7.4697359,17.6990116 7.64887385,17.6521698 C7.8286448,17.6053281 8.0147457,17.5622844 8.19071867,17.4989847 C8.36415965,17.4363181 8.53127067,17.3420017 8.70154667,17.2635101 C8.86042873,17.1894496 8.97057008,17.0394294 9.10096732,16.9261231 C9.23009856,16.8134498 9.36239478,16.7045744 9.4617752,16.5583523 C9.55672464,16.4190931 9.64407813,16.269073 9.71054274,16.1032279 C9.77320937,15.9468779 9.79663023,15.7747029 9.83207802,15.5987299 C9.86499383,15.4341509 9.94285237,15.2683059 9.95108132,15.0891679 C9.95867728,14.9214239 9.96753923,14.7416529 9.95234732,14.563781 C9.9384214,14.4055319 9.86752581,14.2358889 9.80675817,14.0656129 M8.45467812,22.0090832 C8.41353336,21.8571641 8.33630781,21.705245 8.21793751,21.6140936 C8.0995672,21.5235751 7.93245619,21.4919253 7.77547311,21.4919253 C7.52923755,21.4919253 7.28996496,21.6970161 7.19691451,21.8584301 C7.10386405,22.0192112 7.00385064,22.2065781 7.05259136,22.385716 C7.0791772,22.4857294 7.16146672,22.6851233 7.15703574,22.9281938 C7.15323776,23.1092308 7.15007278,23.3073586 7.14057784,23.4871296 C7.12728492,23.7415941 7.13677986,23.9587118 7.13677986,24.0429003 C7.13677986,24.2891358 6.99688768,24.4916947 6.93485405,24.6670346 C6.84876655,24.9075732 6.7563491,25.0607583 6.52783744,25.0607583 C6.27780391,25.0607583 6.13411375,24.8404756 6.14487469,24.4676408 C6.15373664,24.1726645 6.16196559,23.921365 6.16386458,23.6763954 C6.16576357,23.4618097 6.24615409,23.2548199 6.25248406,23.0370692 C6.25881402,22.8357764 6.21260529,22.6230896 6.22969619,22.392679 C6.23855814,22.2755747 6.28666586,22.1223896 6.30185777,21.9432516 C6.31831567,21.7444908 6.3297096,21.5583899 6.34363552,21.3843159 C6.35946043,21.1836561 6.38478028,20.9988212 6.39680721,20.8279122 C6.41073313,20.6221884 6.40946714,20.4360875 6.41769609,20.2696095 C6.42845702,20.0543907 6.3816153,19.8701888 6.3822483,19.7113067 C6.38288129,19.4770981 6.37781732,19.3049231 6.35439646,19.162499 C6.31515069,18.9175294 6.25691503,18.8054891 6.14170971,18.6877518 C5.96510375,18.5073478 5.79229576,18.3851795 5.58530598,18.3244119 C5.3599593,18.2585803 5.13081465,18.1952807 4.91053194,18.1952807 C4.84470033,18.1952807 4.76810778,18.2864321 4.62505062,18.2883311 C4.51680826,18.2883311 4.37438409,18.1743918 4.23575791,18.0636174 C4.13384551,17.9825939 4.02686914,17.8781495 3.94268063,17.7458533 C3.82684231,17.5622844 3.79012853,17.3502306 3.77683561,17.1438738 C3.76290969,16.9267561 3.73822283,16.6925475 3.81608137,16.5064466 C3.90470085,16.2969248 4.09396674,16.1532347 4.26993971,16.0627162 C4.41489586,15.9880226 4.57377792,15.9633358 4.74468692,15.932319 C4.89913801,15.9038341 5.05675408,15.8076187 5.23462604,15.8000227 C5.39160912,15.7936928 5.55998613,15.7955918 5.73659209,15.7955918 C5.91573004,15.7949588 6.09550098,15.8114167 6.2790699,15.8069857 C6.45694186,15.8019217 6.63481381,15.7854638 6.81838273,15.7677399 C6.9943557,15.750649 7.18488758,15.8044537 7.36719051,15.7677399 C7.54949344,15.7310261 7.66090078,15.5601171 7.76344618,15.405666 C7.86662457,15.250582 7.9976548,15.07904 7.96094102,14.896737 C7.92802521,14.732158 7.74635528,14.6264476 7.58557422,14.5277002 C7.452645,14.4466767 7.29882691,14.4181918 7.10323106,14.4150269 C6.88548034,14.4112289 6.65760168,14.4226228 6.42212706,14.4460437 C6.19234941,14.4681986 5.9562418,14.4466767 5.73279411,14.4473097 C5.54542721,14.4473097 5.35489533,14.4074309 5.16562944,14.4137609 C4.97699655,14.4200908 4.78329969,14.4283198 4.59593279,14.4523736 C4.40919889,14.4770605 4.23322592,14.5720099 4.05092299,14.6258146 C3.87305104,14.6783533 3.67112523,14.6935452 3.50084923,14.7853297 C3.33943518,14.8726832 3.19194704,15.0176393 3.05458685,15.1625955 C2.92798759,15.2961577 2.80961729,15.4563057 2.71023687,15.6272147 C2.61718642,15.7879958 2.55388679,15.9753627 2.49122016,16.1601976 C2.43108551,16.3380696 2.40829765,16.5298674 2.38107881,16.7216653 C2.35449296,16.9083992 2.2975233,17.1001971 2.30765124,17.292628 C2.31777918,17.4818938 2.38930776,17.6667288 2.43868147,17.8534627 C2.48742218,18.0351326 2.52286997,18.2288295 2.61338844,18.4010044 C2.70264092,18.5700145 2.81911223,18.7440884 2.95204145,18.9086675 C3.07420973,19.0599536 3.25271469,19.1606 3.42995364,19.2777043 C3.58693672,19.3815157 3.73822283,19.5391318 3.95154258,19.5948354 C4.12941453,19.6410442 4.3395693,19.6328152 4.56428298,19.6328152 C4.93268681,19.6188893 5.09346787,19.5998994 5.08713791,20.0695826 C5.08523892,20.1911179 5.02700326,20.3911447 5.00738037,20.6247204 C4.99218846,20.7975284 4.96623562,20.9874272 4.94851172,21.1792251 C4.93142082,21.369124 4.94028277,21.5621879 4.92698985,21.7362618 C4.90926595,21.9622415 4.9174949,22.1584704 4.9181279,22.2907666 C4.91939389,22.5420661 4.91622891,22.7699448 4.90483498,22.9851635 C4.89280805,23.2206381 4.8839461,23.4421868 4.88141411,23.6738635 C4.87951513,23.8960452 4.8662222,24.1486107 4.85736026,24.429661 C4.85356228,24.5638562 4.80039059,24.7322332 4.8162155,24.9170682 C4.82950842,25.0696203 4.85166329,25.2360983 4.90610097,25.3987783 C4.95610768,25.5456335 5.05865307,25.6747647 5.16246446,25.8121249 C5.26057889,25.9418891 5.35679432,26.0849463 5.49858549,26.1824277 C5.63404669,26.2754782 5.78849778,26.3558687 5.95181082,26.4071414 C6.10816091,26.4565151 6.2797029,26.479303 6.45187789,26.479303 C6.61835591,26.479303 6.78673292,26.4849999 6.93991802,26.4546161 C7.10513005,26.4210673 7.27160807,26.3748586 7.41023425,26.307128 C7.56215336,26.2324344 7.69951355,26.1222931 7.80585693,26.0089867 C7.92802521,25.8792225 8.04196454,25.7317344 8.13248301,25.5772833 C8.22173549,25.4259972 8.30845598,25.2601521 8.36605864,25.0873442 C8.42112931,24.9227651 8.3894795,24.7303342 8.41479935,24.5480313 C8.43822021,24.3771223 8.46100808,24.2024154 8.4572101,24.0182134 C8.45467812,23.8675603 8.49582287,23.6846244 8.51291377,23.4909275 C8.5262067,23.3377424 8.47176902,23.1674664 8.47873198,22.9933925 C8.48442894,22.8332444 8.55279254,22.6673994 8.53886662,22.4983894 C8.5262067,22.3363423 8.49835486,22.1711303 8.45467812,22.0090832" id="Fill-10" fill="#AF966D" transform="translate(13.167845, 13.739824) rotate(-90.000000) translate(-13.167845, -13.739824) "></path>
    </g>
</svg>